<?xml version="1.0" encoding="utf-8"?>
<!-- Generator: Adobe Illustrator 24.3.0, SVG Export Plug-In . SVG Version: 6.00 Build 0)  -->
<svg version="1.1" id="Layer_1" xmlns="http://www.w3.org/2000/svg" xmlns:xlink="http://www.w3.org/1999/xlink" x="0px" y="0px"
	 viewBox="0 0 40 40" style="enable-background:new 0 0 40 40;" xml:space="preserve">
<style type="text/css">
	.st0{fill:#C82A87;}
</style>
<g>
	<path class="st0" d="M36,0H4C1.8,0,0,1.8,0,4v32c0,2.2,1.8,4,4,4h32c2.2,0,4-1.8,4-4V4C40,1.8,38.2,0,36,0z M39,36c0,1.7-1.3,3-3,3
		H4c-1.7,0-3-1.3-3-3V4c0-1.7,1.3-3,3-3h32c1.7,0,3,1.3,3,3V36z"/>
	<polygon class="st0" points="25.8,11.3 20,17.1 14.2,11.3 11.3,14.2 17.1,20 11.3,25.8 14.2,28.7 20,22.9 25.8,28.7 28.7,25.8 
		22.9,20 28.7,14.2 	"/>
</g>
</svg>
